<svg xmlns="http://www.w3.org/2000/svg" xmlns:xlink="http://www.w3.org/1999/xlink" width="500" zoomAndPan="magnify" viewBox="0 0 375 374.999991" height="500" preserveAspectRatio="xMidYMid meet" version="1.0"><defs><g/></defs><g fill="#ffffff" fill-opacity="1"><g transform="translate(162.590564, 123.510318)"><g><path d="M 1.78125 0 L 17.046875 -41.421875 L 22.3125 -41.421875 L 37.515625 0 L 32.25 0 L 28.46875 -10.65625 L 10.828125 -10.65625 L 6.984375 0 Z M 12.3125 -14.671875 L 26.984375 -14.671875 L 19.640625 -35.140625 Z M 12.3125 -14.671875 "/></g></g></g><g fill="#8c52ff" fill-opacity="1"><g transform="translate(201.881439, 123.510318)"><g><path d="M 18.9375 9 C 16.25 9 14.078125 8.257812 12.421875 6.78125 C 10.765625 5.300781 9.9375 3.082031 9.9375 0.125 C 9.9375 -1.21875 10.046875 -2.429688 10.265625 -3.515625 C 10.484375 -4.597656 10.703125 -5.710938 10.921875 -6.859375 C 11.140625 -8.003906 11.25 -9.347656 11.25 -10.890625 C 11.25 -12.304688 10.832031 -13.632812 10 -14.875 C 9.164062 -16.125 7.546875 -17.003906 5.140625 -17.515625 L 5.140625 -21.53125 C 7.546875 -22.050781 9.164062 -22.921875 10 -24.140625 C 10.832031 -25.359375 11.25 -26.703125 11.25 -28.171875 C 11.25 -29.671875 11.140625 -30.988281 10.921875 -32.125 C 10.703125 -33.269531 10.484375 -34.382812 10.265625 -35.46875 C 10.046875 -36.550781 9.9375 -37.765625 9.9375 -39.109375 C 9.9375 -42.109375 10.765625 -44.335938 12.421875 -45.796875 C 14.078125 -47.253906 16.25 -47.984375 18.9375 -47.984375 L 22.078125 -47.984375 L 22.078125 -43.734375 L 19.828125 -43.734375 C 18.171875 -43.734375 16.914062 -43.347656 16.0625 -42.578125 C 15.21875 -41.804688 14.796875 -40.515625 14.796875 -38.703125 C 14.796875 -37.554688 14.894531 -36.457031 15.09375 -35.40625 C 15.289062 -34.363281 15.492188 -33.257812 15.703125 -32.09375 C 15.921875 -30.9375 16.03125 -29.566406 16.03125 -27.984375 C 16.03125 -25.898438 15.507812 -24.109375 14.46875 -22.609375 C 13.425781 -21.109375 11.757812 -20.097656 9.46875 -19.578125 L 9.46875 -19.46875 C 11.757812 -18.914062 13.425781 -17.890625 14.46875 -16.390625 C 15.507812 -14.890625 16.03125 -13.09375 16.03125 -11 C 16.03125 -9.46875 15.921875 -8.117188 15.703125 -6.953125 C 15.492188 -5.785156 15.289062 -4.679688 15.09375 -3.640625 C 14.894531 -2.597656 14.796875 -1.484375 14.796875 -0.296875 C 14.796875 1.472656 15.21875 2.753906 16.0625 3.546875 C 16.914062 4.335938 18.171875 4.734375 19.828125 4.734375 L 22.078125 4.734375 L 22.078125 9 Z M 18.9375 9 "/></g></g></g><g fill="#8c52ff" fill-opacity="1"><g transform="translate(227.023833, 123.510318)"><g><path d="M 2.25 8.578125 L 2.25 8.109375 C 5.84375 4.554688 8.75 0.40625 10.96875 -4.34375 C 13.195312 -9.101562 14.3125 -14.222656 14.3125 -19.703125 C 14.3125 -25.179688 13.207031 -30.296875 11 -35.046875 C 8.789062 -39.804688 5.894531 -43.960938 2.3125 -47.515625 L 2.3125 -47.984375 L 7.34375 -47.984375 C 9.507812 -45.929688 11.488281 -43.492188 13.28125 -40.671875 C 15.070312 -37.859375 16.507812 -34.6875 17.59375 -31.15625 C 18.6875 -27.625 19.234375 -23.804688 19.234375 -19.703125 C 19.234375 -15.597656 18.6875 -11.78125 17.59375 -8.25 C 16.507812 -4.71875 15.070312 -1.546875 13.28125 1.265625 C 11.488281 4.085938 9.507812 6.523438 7.34375 8.578125 Z M 2.25 8.578125 "/></g></g></g><g fill="#ffffff" fill-opacity="1"><g transform="translate(249.035569, 123.510318)"><g><path d="M 4.375 0 L 4.375 -41.421875 L 30 -41.421875 L 30 -37.34375 L 9.34375 -37.34375 L 9.34375 -22.90625 L 28.21875 -22.90625 L 28.21875 -18.875 L 9.34375 -18.875 L 9.34375 -4.078125 L 30 -4.078125 L 30 0 Z M 4.375 0 "/></g></g></g><g fill="#ffffff" fill-opacity="1"><g transform="translate(282.401015, 123.510318)"><g><path d="M 4.375 0 L 4.375 -41.421875 L 30 -41.421875 L 30 -37.34375 L 9.34375 -37.34375 L 9.34375 -22.90625 L 28.21875 -22.90625 L 28.21875 -18.875 L 9.34375 -18.875 L 9.34375 -4.078125 L 30 -4.078125 L 30 0 Z M 4.375 0 "/></g></g></g><g fill="#ffffff" fill-opacity="1"><g transform="translate(315.766461, 123.510318)"><g><path d="M 4.375 0 L 4.375 -41.421875 L 18.9375 -41.421875 C 21.851562 -41.421875 24.265625 -40.957031 26.171875 -40.03125 C 28.085938 -39.101562 29.519531 -37.835938 30.46875 -36.234375 C 31.414062 -34.640625 31.890625 -32.859375 31.890625 -30.890625 C 31.890625 -28.203125 31.171875 -26.085938 29.734375 -24.546875 C 28.296875 -23.015625 26.570312 -21.953125 24.5625 -21.359375 C 26.09375 -21.085938 27.488281 -20.476562 28.75 -19.53125 C 30.019531 -18.582031 31.019531 -17.394531 31.75 -15.96875 C 32.476562 -14.550781 32.84375 -12.992188 32.84375 -11.296875 C 32.84375 -9.210938 32.328125 -7.3125 31.296875 -5.59375 C 30.273438 -3.875 28.757812 -2.507812 26.75 -1.5 C 24.738281 -0.5 22.289062 0 19.40625 0 Z M 9.34375 -23.3125 L 18.578125 -23.3125 C 21.222656 -23.3125 23.253906 -23.929688 24.671875 -25.171875 C 26.097656 -26.421875 26.8125 -28.148438 26.8125 -30.359375 C 26.8125 -32.441406 26.109375 -34.113281 24.703125 -35.375 C 23.304688 -36.644531 21.207031 -37.28125 18.40625 -37.28125 L 9.34375 -37.28125 Z M 9.34375 -4.140625 L 18.875 -4.140625 C 21.71875 -4.140625 23.90625 -4.800781 25.4375 -6.125 C 26.976562 -7.445312 27.75 -9.289062 27.75 -11.65625 C 27.75 -13.976562 26.941406 -15.835938 25.328125 -17.234375 C 23.710938 -18.640625 21.519531 -19.34375 18.75 -19.34375 L 9.34375 -19.34375 Z M 9.34375 -4.140625 "/></g></g></g></svg>